<mxfile host="app.diagrams.net" agent="Mozilla/5.0 (Macintosh; Intel Mac OS X 10_15_7) AppleWebKit/537.36 (KHTML, like Gecko) Chrome/132.0.0.0 Safari/537.36" version="26.0.11">
  <diagram id="6a731a19-8d31-9384-78a2-239565b7b9f0" name="Page-1">
    <mxGraphModel dx="2004" dy="1680" grid="1" gridSize="10" guides="1" tooltips="1" connect="1" arrows="1" fold="1" page="1" pageScale="1" pageWidth="827" pageHeight="1169" background="none" math="0" shadow="0">
      <root>
        <mxCell id="0" />
        <mxCell id="1" parent="0" />
        <mxCell id="2087" value="&lt;font color=&quot;#23445d&quot;&gt;WAN&lt;/font&gt;" style="rounded=1;whiteSpace=wrap;html=1;strokeColor=none;fillColor=none;fontSize=14;fontColor=#742B21;align=center;fontStyle=1" parent="1" vertex="1">
          <mxGeometry x="761" y="504" width="73" height="19" as="geometry" />
        </mxCell>
        <mxCell id="2089" value="" style="rounded=1;whiteSpace=wrap;html=1;strokeColor=none;fillColor=#BAC8D3;fontSize=24;fontColor=#23445D;align=center;opacity=60;" parent="1" vertex="1">
          <mxGeometry x="960" y="644.28" width="273" height="182" as="geometry" />
        </mxCell>
        <mxCell id="2092" value="" style="rounded=1;whiteSpace=wrap;html=1;strokeColor=none;fillColor=#BAC8D3;fontSize=24;fontColor=#23445D;align=center;opacity=60;" parent="1" vertex="1">
          <mxGeometry x="575" y="736.28" width="260" height="300" as="geometry" />
        </mxCell>
        <mxCell id="2109" value="Internet" style="shape=mxgraph.cisco.storage.cloud;html=1;dashed=0;strokeColor=#23445D;fillColor=#ffffff;strokeWidth=2;fontFamily=Helvetica;fontSize=24;fontColor=#23445D;align=center;fontStyle=1" parent="1" vertex="1">
          <mxGeometry x="790" y="87" width="186" height="106" as="geometry" />
        </mxCell>
        <mxCell id="2114" value="" style="shape=mxgraph.cisco.switches.workgroup_switch;html=1;dashed=0;fillColor=#10739E;strokeColor=#ffffff;strokeWidth=2;verticalLabelPosition=bottom;verticalAlign=top;fontFamily=Helvetica;fontSize=36;fontColor=#FFB366" parent="1" vertex="1">
          <mxGeometry x="434" y="536.5" width="101" height="50" as="geometry" />
        </mxCell>
        <mxCell id="2116" value="" style="shape=mxgraph.cisco.switches.workgroup_switch;html=1;dashed=0;fillColor=#10739E;strokeColor=#ffffff;strokeWidth=2;verticalLabelPosition=bottom;verticalAlign=top;fontFamily=Helvetica;fontSize=36;fontColor=#FFB366" parent="1" vertex="1">
          <mxGeometry x="734" y="534" width="101" height="50" as="geometry" />
        </mxCell>
        <mxCell id="2132" value="" style="shape=mxgraph.cisco.routers.router;html=1;dashed=0;fillColor=#10739E;strokeColor=#ffffff;strokeWidth=2;verticalLabelPosition=bottom;verticalAlign=top;fontFamily=Helvetica;fontSize=36;fontColor=#FFB366" parent="1" vertex="1">
          <mxGeometry x="844" y="420" width="78" height="53" as="geometry" />
        </mxCell>
        <mxCell id="2136" value="" style="shape=mxgraph.cisco.switches.workgroup_switch;html=1;dashed=0;fillColor=#10739E;strokeColor=#ffffff;strokeWidth=2;verticalLabelPosition=bottom;verticalAlign=top;fontFamily=Helvetica;fontSize=36;fontColor=#FFB366" parent="1" vertex="1">
          <mxGeometry x="1060" y="536.5" width="101" height="50" as="geometry" />
        </mxCell>
        <mxCell id="2138" value="" style="shape=mxgraph.cisco.routers.router;html=1;dashed=0;fillColor=#10739E;strokeColor=#ffffff;strokeWidth=2;verticalLabelPosition=bottom;verticalAlign=top;fontFamily=Helvetica;fontSize=36;fontColor=#FFB366" parent="1" vertex="1">
          <mxGeometry x="847" y="164" width="78" height="53" as="geometry" />
        </mxCell>
        <mxCell id="2170" value="" style="elbow=horizontal;endArrow=none;html=1;strokeColor=#23445D;endFill=0;strokeWidth=4;rounded=1;exitX=0.5;exitY=0;exitDx=0;exitDy=0;exitPerimeter=0;" parent="1" source="x_cEqwEpa1U-Svkj_t4W-2257" target="2138" edge="1">
          <mxGeometry width="100" height="100" relative="1" as="geometry">
            <mxPoint x="886.3657894736843" y="260" as="sourcePoint" />
            <mxPoint x="1210.2777777777778" y="240.08333333333337" as="targetPoint" />
          </mxGeometry>
        </mxCell>
        <mxCell id="2172" style="edgeStyle=none;rounded=1;html=1;strokeColor=#23445D;endArrow=none;endFill=0;strokeWidth=4" parent="1" target="2114" edge="1">
          <mxGeometry relative="1" as="geometry">
            <mxPoint x="854.0000000000005" y="456.9515545914678" as="sourcePoint" />
          </mxGeometry>
        </mxCell>
        <mxCell id="2173" style="edgeStyle=none;rounded=1;html=1;strokeColor=#23445D;endArrow=none;endFill=0;strokeWidth=4" parent="1" target="2116" edge="1">
          <mxGeometry relative="1" as="geometry">
            <mxPoint x="854.0000000000005" y="463.41829085457266" as="sourcePoint" />
          </mxGeometry>
        </mxCell>
        <mxCell id="2174" style="edgeStyle=none;rounded=1;html=1;strokeColor=#23445D;endArrow=none;endFill=0;strokeWidth=4" parent="1" target="2132" edge="1">
          <mxGeometry relative="1" as="geometry">
            <mxPoint x="918" y="472.42276422764235" as="sourcePoint" />
          </mxGeometry>
        </mxCell>
        <mxCell id="2178" value="" style="edgeStyle=elbowEdgeStyle;elbow=horizontal;endArrow=none;html=1;strokeColor=#23445D;endFill=0;strokeWidth=4;rounded=1;exitX=0.5;exitY=1;exitDx=0;exitDy=0;exitPerimeter=0;" parent="1" edge="1" source="x_cEqwEpa1U-Svkj_t4W-2257">
          <mxGeometry width="100" height="100" relative="1" as="geometry">
            <mxPoint x="663" y="390" as="sourcePoint" />
            <mxPoint x="886" y="420" as="targetPoint" />
            <Array as="points">
              <mxPoint x="886" y="400" />
            </Array>
          </mxGeometry>
        </mxCell>
        <mxCell id="2189" style="rounded=1;html=1;strokeColor=#23445D;endArrow=none;endFill=0;strokeWidth=4" parent="1" source="2116" edge="1">
          <mxGeometry relative="1" as="geometry">
            <mxPoint x="768.6243386243382" y="912" as="targetPoint" />
          </mxGeometry>
        </mxCell>
        <mxCell id="2190" style="rounded=1;html=1;strokeColor=#23445D;endArrow=none;endFill=0;strokeWidth=4" parent="1" source="2116" edge="1">
          <mxGeometry relative="1" as="geometry">
            <mxPoint x="661.2954545454545" y="754" as="targetPoint" />
          </mxGeometry>
        </mxCell>
        <mxCell id="2202" style="rounded=1;html=1;strokeColor=#23445D;endArrow=none;endFill=0;strokeWidth=4;entryX=0.16;entryY=0.23;entryDx=0;entryDy=0;entryPerimeter=0;exitX=1;exitY=0.5;exitDx=0;exitDy=0;exitPerimeter=0;" parent="1" source="2132" target="2136" edge="1">
          <mxGeometry relative="1" as="geometry">
            <mxPoint x="950" y="560" as="sourcePoint" />
          </mxGeometry>
        </mxCell>
        <mxCell id="2203" style="edgeStyle=orthogonalEdgeStyle;rounded=1;html=1;strokeColor=#23445D;endArrow=none;endFill=0;strokeWidth=4" parent="1" edge="1">
          <mxGeometry relative="1" as="geometry">
            <Array as="points">
              <mxPoint x="1105" y="691.5" />
            </Array>
            <mxPoint x="1105.1111111111109" y="586.5" as="sourcePoint" />
            <mxPoint x="1072" y="691.6111111111109" as="targetPoint" />
          </mxGeometry>
        </mxCell>
        <mxCell id="2204" style="edgeStyle=orthogonalEdgeStyle;rounded=1;html=1;strokeColor=#23445D;endArrow=none;endFill=0;strokeWidth=4" parent="1" edge="1">
          <mxGeometry relative="1" as="geometry">
            <Array as="points">
              <mxPoint x="1105" y="761.5" />
            </Array>
            <mxPoint x="1105.1111111111109" y="586.5" as="sourcePoint" />
            <mxPoint x="1072" y="761.6111111111109" as="targetPoint" />
          </mxGeometry>
        </mxCell>
        <mxCell id="2206" style="edgeStyle=orthogonalEdgeStyle;rounded=1;html=1;strokeColor=#23445D;endArrow=none;endFill=0;strokeWidth=4" parent="1" edge="1">
          <mxGeometry relative="1" as="geometry">
            <Array as="points">
              <mxPoint x="1105" y="691.5" />
            </Array>
            <mxPoint x="1105.1111111111109" y="586.5" as="sourcePoint" />
            <mxPoint x="1126" y="691.6111111111109" as="targetPoint" />
          </mxGeometry>
        </mxCell>
        <mxCell id="2207" style="edgeStyle=orthogonalEdgeStyle;rounded=1;html=1;strokeColor=#23445D;endArrow=none;endFill=0;strokeWidth=4" parent="1" edge="1">
          <mxGeometry relative="1" as="geometry">
            <Array as="points">
              <mxPoint x="1105" y="771.5" />
            </Array>
            <mxPoint x="1105.1111111111109" y="586.5" as="sourcePoint" />
            <mxPoint x="1126" y="771.6111111111109" as="targetPoint" />
          </mxGeometry>
        </mxCell>
        <mxCell id="2230" value="&lt;font style=&quot;font-size: 25px;&quot;&gt;Server Room&lt;/font&gt;" style="rounded=1;whiteSpace=wrap;html=1;strokeColor=none;fillColor=none;fontSize=14;fontColor=#23445D;align=center;fontStyle=1" parent="1" vertex="1">
          <mxGeometry x="1048.5" y="787.28" width="96" height="19" as="geometry" />
        </mxCell>
        <mxCell id="2244" style="rounded=1;html=1;endArrow=none;endFill=0;strokeColor=#23445D;strokeWidth=4;fontSize=14;fontColor=#990000" parent="1" source="2116" edge="1">
          <mxGeometry relative="1" as="geometry">
            <mxPoint x="711.954248366013" y="840" as="targetPoint" />
          </mxGeometry>
        </mxCell>
        <mxCell id="2257" style="edgeStyle=orthogonalEdgeStyle;curved=1;rounded=0;jumpStyle=none;html=1;exitX=0.75;exitY=0;entryX=0.75;entryY=0;shadow=0;labelBackgroundColor=#ffffff;startArrow=none;startFill=0;endArrow=none;endFill=0;endSize=10;jettySize=auto;orthogonalLoop=1;strokeColor=#23445D;strokeWidth=2;fillColor=#F08705;fontFamily=Helvetica;fontSize=25;fontColor=#23445D;align=left;" parent="1" source="2087" target="2087" edge="1">
          <mxGeometry relative="1" as="geometry" />
        </mxCell>
        <mxCell id="x_cEqwEpa1U-Svkj_t4W-2257" value="" style="shape=mxgraph.cisco.security.firewall;sketch=0;html=1;pointerEvents=1;dashed=0;fillColor=#036897;strokeColor=#ffffff;strokeWidth=2;verticalLabelPosition=bottom;verticalAlign=top;align=center;outlineConnect=0;" vertex="1" parent="1">
          <mxGeometry x="871.5" y="290" width="29" height="67" as="geometry" />
        </mxCell>
        <mxCell id="x_cEqwEpa1U-Svkj_t4W-2259" style="edgeStyle=orthogonalEdgeStyle;rounded=0;orthogonalLoop=1;jettySize=auto;html=1;exitX=0.5;exitY=1;exitDx=0;exitDy=0;" edge="1" parent="1" source="2089" target="2089">
          <mxGeometry relative="1" as="geometry" />
        </mxCell>
        <mxCell id="x_cEqwEpa1U-Svkj_t4W-2262" value="" style="shape=mxgraph.cisco.servers.file_server;sketch=0;html=1;pointerEvents=1;dashed=0;fillColor=#036897;strokeColor=#ffffff;strokeWidth=2;verticalLabelPosition=bottom;verticalAlign=top;align=center;outlineConnect=0;" vertex="1" parent="1">
          <mxGeometry x="1006.5" y="661.28" width="43" height="58" as="geometry" />
        </mxCell>
        <mxCell id="x_cEqwEpa1U-Svkj_t4W-2263" value="" style="shape=mxgraph.cisco.servers.file_server;sketch=0;html=1;pointerEvents=1;dashed=0;fillColor=#036897;strokeColor=#ffffff;strokeWidth=2;verticalLabelPosition=bottom;verticalAlign=top;align=center;outlineConnect=0;" vertex="1" parent="1">
          <mxGeometry x="1144.5" y="661.28" width="43" height="58" as="geometry" />
        </mxCell>
        <mxCell id="x_cEqwEpa1U-Svkj_t4W-2264" value="" style="shape=mxgraph.cisco.servers.file_server;sketch=0;html=1;pointerEvents=1;dashed=0;fillColor=#036897;strokeColor=#ffffff;strokeWidth=2;verticalLabelPosition=bottom;verticalAlign=top;align=center;outlineConnect=0;" vertex="1" parent="1">
          <mxGeometry x="1144.5" y="729.28" width="43" height="58" as="geometry" />
        </mxCell>
        <mxCell id="x_cEqwEpa1U-Svkj_t4W-2265" value="" style="shape=mxgraph.cisco.servers.file_server;sketch=0;html=1;pointerEvents=1;dashed=0;fillColor=#036897;strokeColor=#ffffff;strokeWidth=2;verticalLabelPosition=bottom;verticalAlign=top;align=center;outlineConnect=0;" vertex="1" parent="1">
          <mxGeometry x="1005.5" y="736.28" width="43" height="58" as="geometry" />
        </mxCell>
        <mxCell id="x_cEqwEpa1U-Svkj_t4W-2269" value="" style="shape=mxgraph.cisco.computers_and_peripherals.pc;sketch=0;html=1;pointerEvents=1;dashed=0;fillColor=#036897;strokeColor=#ffffff;strokeWidth=2;verticalLabelPosition=bottom;verticalAlign=top;align=center;outlineConnect=0;" vertex="1" parent="1">
          <mxGeometry x="613" y="754.28" width="78" height="70" as="geometry" />
        </mxCell>
        <mxCell id="x_cEqwEpa1U-Svkj_t4W-2270" value="" style="shape=mxgraph.cisco.computers_and_peripherals.pc;sketch=0;html=1;pointerEvents=1;dashed=0;fillColor=#036897;strokeColor=#ffffff;strokeWidth=2;verticalLabelPosition=bottom;verticalAlign=top;align=center;outlineConnect=0;" vertex="1" parent="1">
          <mxGeometry x="663" y="838.28" width="78" height="70" as="geometry" />
        </mxCell>
        <mxCell id="x_cEqwEpa1U-Svkj_t4W-2271" value="" style="shape=mxgraph.cisco.computers_and_peripherals.pc;sketch=0;html=1;pointerEvents=1;dashed=0;fillColor=#036897;strokeColor=#ffffff;strokeWidth=2;verticalLabelPosition=bottom;verticalAlign=top;align=center;outlineConnect=0;" vertex="1" parent="1">
          <mxGeometry x="725" y="916.28" width="78" height="70" as="geometry" />
        </mxCell>
        <mxCell id="x_cEqwEpa1U-Svkj_t4W-2272" value="&lt;font style=&quot;font-size: 25px;&quot;&gt;사무실&lt;/font&gt;" style="rounded=1;whiteSpace=wrap;html=1;strokeColor=none;fillColor=none;fontSize=14;fontColor=#23445D;align=center;fontStyle=1" vertex="1" parent="1">
          <mxGeometry x="654" y="1006.28" width="96" height="19" as="geometry" />
        </mxCell>
        <mxCell id="x_cEqwEpa1U-Svkj_t4W-2273" value="" style="rounded=1;whiteSpace=wrap;html=1;strokeColor=none;fillColor=#BAC8D3;fontSize=24;fontColor=#23445D;align=center;opacity=60;" vertex="1" parent="1">
          <mxGeometry x="275" y="738.78" width="260" height="300" as="geometry" />
        </mxCell>
        <mxCell id="x_cEqwEpa1U-Svkj_t4W-2274" style="rounded=1;html=1;strokeColor=#23445D;endArrow=none;endFill=0;strokeWidth=4" edge="1" parent="1">
          <mxGeometry relative="1" as="geometry">
            <mxPoint x="483" y="586.5" as="sourcePoint" />
            <mxPoint x="468.6243386243382" y="914.5" as="targetPoint" />
          </mxGeometry>
        </mxCell>
        <mxCell id="x_cEqwEpa1U-Svkj_t4W-2275" style="rounded=1;html=1;strokeColor=#23445D;endArrow=none;endFill=0;strokeWidth=4" edge="1" parent="1">
          <mxGeometry relative="1" as="geometry">
            <mxPoint x="469" y="586.5" as="sourcePoint" />
            <mxPoint x="361.2954545454545" y="756.5" as="targetPoint" />
          </mxGeometry>
        </mxCell>
        <mxCell id="x_cEqwEpa1U-Svkj_t4W-2276" style="rounded=1;html=1;endArrow=none;endFill=0;strokeColor=#23445D;strokeWidth=4;fontSize=14;fontColor=#990000" edge="1" parent="1">
          <mxGeometry relative="1" as="geometry">
            <mxPoint x="478" y="586.5" as="sourcePoint" />
            <mxPoint x="411.95424836601296" y="842.5" as="targetPoint" />
          </mxGeometry>
        </mxCell>
        <mxCell id="x_cEqwEpa1U-Svkj_t4W-2277" value="" style="shape=mxgraph.cisco.computers_and_peripherals.pc;sketch=0;html=1;pointerEvents=1;dashed=0;fillColor=#036897;strokeColor=#ffffff;strokeWidth=2;verticalLabelPosition=bottom;verticalAlign=top;align=center;outlineConnect=0;" vertex="1" parent="1">
          <mxGeometry x="313" y="756.78" width="78" height="70" as="geometry" />
        </mxCell>
        <mxCell id="x_cEqwEpa1U-Svkj_t4W-2278" value="" style="shape=mxgraph.cisco.computers_and_peripherals.pc;sketch=0;html=1;pointerEvents=1;dashed=0;fillColor=#036897;strokeColor=#ffffff;strokeWidth=2;verticalLabelPosition=bottom;verticalAlign=top;align=center;outlineConnect=0;" vertex="1" parent="1">
          <mxGeometry x="363" y="840.78" width="78" height="70" as="geometry" />
        </mxCell>
        <mxCell id="x_cEqwEpa1U-Svkj_t4W-2279" value="" style="shape=mxgraph.cisco.computers_and_peripherals.pc;sketch=0;html=1;pointerEvents=1;dashed=0;fillColor=#036897;strokeColor=#ffffff;strokeWidth=2;verticalLabelPosition=bottom;verticalAlign=top;align=center;outlineConnect=0;" vertex="1" parent="1">
          <mxGeometry x="425" y="918.78" width="78" height="70" as="geometry" />
        </mxCell>
        <mxCell id="x_cEqwEpa1U-Svkj_t4W-2280" value="&lt;font style=&quot;font-size: 25px;&quot;&gt;사무실&lt;/font&gt;" style="rounded=1;whiteSpace=wrap;html=1;strokeColor=none;fillColor=none;fontSize=14;fontColor=#23445D;align=center;fontStyle=1" vertex="1" parent="1">
          <mxGeometry x="354" y="1008.78" width="96" height="19" as="geometry" />
        </mxCell>
        <mxCell id="x_cEqwEpa1U-Svkj_t4W-2282" style="rounded=1;html=1;strokeColor=#23445D;endArrow=none;endFill=0;strokeWidth=4;exitX=1;exitY=0.5;exitDx=0;exitDy=0;exitPerimeter=0;" edge="1" parent="1">
          <mxGeometry relative="1" as="geometry">
            <mxPoint x="722" y="330" as="sourcePoint" />
            <mxPoint x="871.5" y="330" as="targetPoint" />
          </mxGeometry>
        </mxCell>
        <mxCell id="x_cEqwEpa1U-Svkj_t4W-2283" value="" style="rounded=1;whiteSpace=wrap;html=1;strokeColor=none;fillColor=#BAC8D3;fontSize=24;fontColor=#23445D;align=center;opacity=60;" vertex="1" parent="1">
          <mxGeometry x="450" y="238" width="273" height="182" as="geometry" />
        </mxCell>
        <mxCell id="x_cEqwEpa1U-Svkj_t4W-2289" value="" style="shape=mxgraph.cisco.servers.file_server;sketch=0;html=1;pointerEvents=1;dashed=0;fillColor=#036897;strokeColor=#ffffff;strokeWidth=2;verticalLabelPosition=bottom;verticalAlign=top;align=center;outlineConnect=0;" vertex="1" parent="1">
          <mxGeometry x="496.5" y="262.5" width="43" height="58" as="geometry" />
        </mxCell>
        <mxCell id="x_cEqwEpa1U-Svkj_t4W-2290" value="" style="shape=mxgraph.cisco.servers.file_server;sketch=0;html=1;pointerEvents=1;dashed=0;fillColor=#036897;strokeColor=#ffffff;strokeWidth=2;verticalLabelPosition=bottom;verticalAlign=top;align=center;outlineConnect=0;" vertex="1" parent="1">
          <mxGeometry x="634.5" y="262.5" width="43" height="58" as="geometry" />
        </mxCell>
        <mxCell id="x_cEqwEpa1U-Svkj_t4W-2291" value="" style="shape=mxgraph.cisco.servers.file_server;sketch=0;html=1;pointerEvents=1;dashed=0;fillColor=#036897;strokeColor=#ffffff;strokeWidth=2;verticalLabelPosition=bottom;verticalAlign=top;align=center;outlineConnect=0;" vertex="1" parent="1">
          <mxGeometry x="631" y="337.5" width="43" height="58" as="geometry" />
        </mxCell>
        <mxCell id="x_cEqwEpa1U-Svkj_t4W-2292" value="" style="shape=mxgraph.cisco.servers.file_server;sketch=0;html=1;pointerEvents=1;dashed=0;fillColor=#036897;strokeColor=#ffffff;strokeWidth=2;verticalLabelPosition=bottom;verticalAlign=top;align=center;outlineConnect=0;" vertex="1" parent="1">
          <mxGeometry x="495.5" y="337.5" width="43" height="58" as="geometry" />
        </mxCell>
        <mxCell id="x_cEqwEpa1U-Svkj_t4W-2293" value="&lt;span style=&quot;font-size: 25px;&quot;&gt;DMZ&lt;/span&gt;" style="rounded=1;whiteSpace=wrap;html=1;strokeColor=none;fillColor=none;fontSize=14;fontColor=#23445D;align=center;fontStyle=1" vertex="1" parent="1">
          <mxGeometry x="535" y="395.5" width="96" height="19" as="geometry" />
        </mxCell>
        <mxCell id="x_cEqwEpa1U-Svkj_t4W-2296" value="x&lt;span style=&quot;color: rgba(0, 0, 0, 0); font-family: monospace; font-size: 0px; text-align: start; background-color: rgb(251, 251, 251);&quot;&gt;%3CmxGraphModel%3E%3Croot%3E%3CmxCell%20id%3D%220%22%2F%3E%3CmxCell%20id%3D%221%22%20parent%3D%220%22%2F%3E%3CmxCell%20id%3D%222%22%20style%3D%22edgeStyle%3DorthogonalEdgeStyle%3Brounded%3D1%3Bhtml%3D1%3BstrokeColor%3D%2323445D%3BendArrow%3Dnone%3BendFill%3D0%3BstrokeWidth%3D4%22%20edge%3D%221%22%20parent%3D%221%22%3E%3CmxGeometry%20relative%3D%221%22%20as%3D%22geometry%22%3E%3CArray%20as%3D%22points%22%3E%3CmxPoint%20x%3D%221105%22%20y%3D%22771.5%22%2F%3E%3C%2FArray%3E%3CmxPoint%20x%3D%221105.1111111111109%22%20y%3D%22586.5%22%20as%3D%22sourcePoint%22%2F%3E%3CmxPoint%20x%3D%221126%22%20y%3D%22771.6111111111109%22%20as%3D%22targetPoint%22%2F%3E%3C%2FmxGeometry%3E%3C%2FmxCell%3E%3C%2Froot%3E%3C%2FmxGraphModel%3E&lt;/span&gt;" style="edgeStyle=orthogonalEdgeStyle;rounded=1;html=1;strokeColor=#23445D;endArrow=none;endFill=0;strokeWidth=4;entryX=0.5;entryY=1;entryDx=0;entryDy=0;entryPerimeter=0;" edge="1" parent="1">
          <mxGeometry relative="1" as="geometry">
            <Array as="points">
              <mxPoint x="522.89" y="330" />
            </Array>
            <mxPoint x="725.0011111111108" y="330.5" as="sourcePoint" />
            <mxPoint x="522.89" y="320.5" as="targetPoint" />
          </mxGeometry>
        </mxCell>
        <mxCell id="x_cEqwEpa1U-Svkj_t4W-2297" value="x&lt;span style=&quot;color: rgba(0, 0, 0, 0); font-family: monospace; font-size: 0px; text-align: start; background-color: rgb(251, 251, 251);&quot;&gt;%3CmxGraphModel%3E%3Croot%3E%3CmxCell%20id%3D%220%22%2F%3E%3CmxCell%20id%3D%221%22%20parent%3D%220%22%2F%3E%3CmxCell%20id%3D%222%22%20style%3D%22edgeStyle%3DorthogonalEdgeStyle%3Brounded%3D1%3Bhtml%3D1%3BstrokeColor%3D%2323445D%3BendArrow%3Dnone%3BendFill%3D0%3BstrokeWidth%3D4%22%20edge%3D%221%22%20parent%3D%221%22%3E%3CmxGeometry%20relative%3D%221%22%20as%3D%22geometry%22%3E%3CArray%20as%3D%22points%22%3E%3CmxPoint%20x%3D%221105%22%20y%3D%22771.5%22%2F%3E%3C%2FArray%3E%3CmxPoint%20x%3D%221105.1111111111109%22%20y%3D%22586.5%22%20as%3D%22sourcePoint%22%2F%3E%3CmxPoint%20x%3D%221126%22%20y%3D%22771.6111111111109%22%20as%3D%22targetPoint%22%2F%3E%3C%2FmxGeometry%3E%3C%2FmxCell%3E%3C%2Froot%3E%3C%2FmxGraphModel%3E&lt;/span&gt;" style="edgeStyle=orthogonalEdgeStyle;rounded=1;html=1;strokeColor=#23445D;endArrow=none;endFill=0;strokeWidth=4;" edge="1" parent="1">
          <mxGeometry relative="1" as="geometry">
            <Array as="points">
              <mxPoint x="520.89" y="330" />
            </Array>
            <mxPoint x="723.0011111111108" y="330.5" as="sourcePoint" />
            <mxPoint x="521" y="359" as="targetPoint" />
          </mxGeometry>
        </mxCell>
        <mxCell id="x_cEqwEpa1U-Svkj_t4W-2298" value="x&lt;span style=&quot;color: rgba(0, 0, 0, 0); font-family: monospace; font-size: 0px; text-align: start; background-color: rgb(251, 251, 251);&quot;&gt;%3CmxGraphModel%3E%3Croot%3E%3CmxCell%20id%3D%220%22%2F%3E%3CmxCell%20id%3D%221%22%20parent%3D%220%22%2F%3E%3CmxCell%20id%3D%222%22%20style%3D%22edgeStyle%3DorthogonalEdgeStyle%3Brounded%3D1%3Bhtml%3D1%3BstrokeColor%3D%2323445D%3BendArrow%3Dnone%3BendFill%3D0%3BstrokeWidth%3D4%22%20edge%3D%221%22%20parent%3D%221%22%3E%3CmxGeometry%20relative%3D%221%22%20as%3D%22geometry%22%3E%3CArray%20as%3D%22points%22%3E%3CmxPoint%20x%3D%221105%22%20y%3D%22771.5%22%2F%3E%3C%2FArray%3E%3CmxPoint%20x%3D%221105.1111111111109%22%20y%3D%22586.5%22%20as%3D%22sourcePoint%22%2F%3E%3CmxPoint%20x%3D%221126%22%20y%3D%22771.6111111111109%22%20as%3D%22targetPoint%22%2F%3E%3C%2FmxGeometry%3E%3C%2FmxCell%3E%3C%2Froot%3E%3C%2FmxGraphModel%3E&lt;/span&gt;" style="edgeStyle=orthogonalEdgeStyle;rounded=1;html=1;strokeColor=#23445D;endArrow=none;endFill=0;strokeWidth=4;entryX=0.75;entryY=1;entryDx=0;entryDy=0;" edge="1" parent="1">
          <mxGeometry relative="1" as="geometry">
            <Array as="points">
              <mxPoint x="654.25" y="330" />
            </Array>
            <mxPoint x="722.2511111111108" y="330.5" as="sourcePoint" />
            <mxPoint x="654" y="306" as="targetPoint" />
          </mxGeometry>
        </mxCell>
        <mxCell id="x_cEqwEpa1U-Svkj_t4W-2299" value="x&lt;span style=&quot;color: rgba(0, 0, 0, 0); font-family: monospace; font-size: 0px; text-align: start; background-color: rgb(251, 251, 251);&quot;&gt;%3CmxGraphModel%3E%3Croot%3E%3CmxCell%20id%3D%220%22%2F%3E%3CmxCell%20id%3D%221%22%20parent%3D%220%22%2F%3E%3CmxCell%20id%3D%222%22%20style%3D%22edgeStyle%3DorthogonalEdgeStyle%3Brounded%3D1%3Bhtml%3D1%3BstrokeColor%3D%2323445D%3BendArrow%3Dnone%3BendFill%3D0%3BstrokeWidth%3D4%22%20edge%3D%221%22%20parent%3D%221%22%3E%3CmxGeometry%20relative%3D%221%22%20as%3D%22geometry%22%3E%3CArray%20as%3D%22points%22%3E%3CmxPoint%20x%3D%221105%22%20y%3D%22771.5%22%2F%3E%3C%2FArray%3E%3CmxPoint%20x%3D%221105.1111111111109%22%20y%3D%22586.5%22%20as%3D%22sourcePoint%22%2F%3E%3CmxPoint%20x%3D%221126%22%20y%3D%22771.6111111111109%22%20as%3D%22targetPoint%22%2F%3E%3C%2FmxGeometry%3E%3C%2FmxCell%3E%3C%2Froot%3E%3C%2FmxGraphModel%3E&lt;/span&gt;" style="edgeStyle=orthogonalEdgeStyle;rounded=1;html=1;strokeColor=#23445D;endArrow=none;endFill=0;strokeWidth=4;" edge="1" parent="1">
          <mxGeometry relative="1" as="geometry">
            <Array as="points">
              <mxPoint x="653.89" y="329.5" />
            </Array>
            <mxPoint x="721.8911111111108" y="330" as="sourcePoint" />
            <mxPoint x="658.89" y="351" as="targetPoint" />
          </mxGeometry>
        </mxCell>
      </root>
    </mxGraphModel>
  </diagram>
</mxfile>
